<svg width="13" height="12" viewBox="0 0 13 12" fill="none" xmlns="http://www.w3.org/2000/svg">
<mask id="path-1-inside-1_6_139" fill="white">
<path d="M12.5112 2.49359C12.3151 2.03946 12.0323 1.62793 11.6787 1.28204C11.3247 0.935124 10.9075 0.659431 10.4495 0.469957C9.9747 0.272704 9.4654 0.171739 8.95121 0.172923C8.22984 0.172923 7.52603 0.370458 6.9144 0.743579C6.76808 0.832836 6.62908 0.930872 6.49739 1.03769C6.3657 0.930872 6.22669 0.832836 6.08037 0.743579C5.46874 0.370458 4.76493 0.172923 4.04356 0.172923C3.52412 0.172923 3.02077 0.272422 2.54522 0.469957C2.08577 0.660176 1.67168 0.933798 1.31612 1.28204C0.962014 1.62754 0.679146 2.03917 0.483546 2.49359C0.280158 2.96621 0.17627 3.4681 0.17627 3.98461C0.17627 4.47187 0.275769 4.97961 0.473304 5.49612C0.638648 5.92777 0.875689 6.37552 1.17858 6.82765C1.65851 7.54317 2.31843 8.28941 3.13783 9.0459C4.4957 10.2999 5.8404 11.1661 5.89747 11.2012L6.24425 11.4236C6.39789 11.5217 6.59542 11.5217 6.74906 11.4236L7.09584 11.2012C7.15291 11.1646 8.49615 10.2999 9.85548 9.0459C10.6749 8.28941 11.3348 7.54317 11.8147 6.82765C12.1176 6.37552 12.3561 5.92777 12.52 5.49612C12.7175 4.97961 12.817 4.47187 12.817 3.98461C12.8185 3.4681 12.7146 2.96621 12.5112 2.49359Z"/>
</mask>
<path d="M11.6787 1.28204L10.9786 1.99616L10.9794 1.99694L11.6787 1.28204ZM10.4495 0.469957L10.0659 1.39345L10.0672 1.39399L10.4495 0.469957ZM8.95121 0.172923V1.17293L8.95351 1.17292L8.95121 0.172923ZM6.9144 0.743579L7.43516 1.59728L7.43519 1.59726L6.9144 0.743579ZM6.49739 1.03769L5.86744 1.81433L6.49739 2.32528L7.12733 1.81433L6.49739 1.03769ZM6.08037 0.743579L5.55958 1.59726L5.55961 1.59728L6.08037 0.743579ZM2.54522 0.469957L2.92775 1.3939L2.92883 1.39345L2.54522 0.469957ZM1.31612 1.28204L2.01448 1.9978L2.01584 1.99646L1.31612 1.28204ZM0.483546 2.49359L-0.434977 2.09823L-0.43501 2.0983L0.483546 2.49359ZM0.473304 5.49612L-0.460722 5.85333L-0.460531 5.85383L0.473304 5.49612ZM1.17858 6.82765L0.347769 7.38421L0.348097 7.3847L1.17858 6.82765ZM3.13783 9.0459L3.81627 8.31125L3.81616 8.31115L3.13783 9.0459ZM5.89747 11.2012L6.43733 10.3595L6.42949 10.3544L6.42156 10.3496L5.89747 11.2012ZM6.24425 11.4236L5.70439 12.2654L5.70634 12.2666L6.24425 11.4236ZM6.74906 11.4236L7.28698 12.2666L7.28892 12.2654L6.74906 11.4236ZM7.09584 11.2012L6.55618 10.3593L6.55598 10.3595L7.09584 11.2012ZM9.85548 9.0459L10.5335 9.78091L10.5338 9.78065L9.85548 9.0459ZM11.8147 6.82765L12.6452 7.3847L12.6455 7.38421L11.8147 6.82765ZM12.52 5.49612L11.586 5.13892L11.5851 5.14118L12.52 5.49612ZM12.817 3.98461L11.817 3.98178V3.98461H12.817ZM13.4293 2.09711C13.1816 1.52362 12.8245 1.00394 12.3779 0.567146L10.9794 1.99694C11.2401 2.25193 11.4486 2.5553 11.5932 2.89008L13.4293 2.09711ZM12.3787 0.567926C11.9333 0.131332 11.4082 -0.215623 10.8319 -0.454072L10.0672 1.39399C10.4068 1.53448 10.7162 1.73892 10.9786 1.99616L12.3787 0.567926ZM10.8332 -0.453535C10.236 -0.701593 9.59553 -0.828563 8.94891 -0.827074L8.95351 1.17292C9.33526 1.17204 9.71338 1.247 10.0659 1.39345L10.8332 -0.453535ZM8.95121 -0.827077C8.04693 -0.827077 7.16281 -0.579352 6.39362 -0.110106L7.43519 1.59726C7.88925 1.32027 8.41275 1.17292 8.95121 1.17292V-0.827077ZM6.39365 -0.110124C6.20966 0.00210498 6.03414 0.125835 5.86744 0.261045L7.12733 1.81433C7.22401 1.73591 7.3265 1.66357 7.43516 1.59728L6.39365 -0.110124ZM7.12733 0.261045C6.96063 0.125835 6.78511 0.00210498 6.60113 -0.110124L5.55961 1.59728C5.66827 1.66357 5.77076 1.73591 5.86744 1.81433L7.12733 0.261045ZM6.60116 -0.110106C5.83196 -0.579352 4.94784 -0.827077 4.04356 -0.827077V1.17292C4.58202 1.17292 5.10552 1.32027 5.55958 1.59726L6.60116 -0.110106ZM4.04356 -0.827077C3.39421 -0.827077 2.76036 -0.702246 2.16162 -0.45354L2.92883 1.39345C3.28119 1.24709 3.65403 1.17292 4.04356 1.17292V-0.827077ZM2.1627 -0.453988C1.58495 -0.214791 1.06321 0.130008 0.6164 0.567626L2.01584 1.99646C2.28015 1.73759 2.5866 1.53514 2.92775 1.3939L2.1627 -0.453988ZM0.617763 0.566295C0.170018 1.00316 -0.187652 1.52363 -0.434977 2.09823L1.40207 2.88896C1.54595 2.5547 1.75401 2.25193 2.01448 1.9978L0.617763 0.566295ZM-0.43501 2.0983C-0.691986 2.69545 -0.82373 3.3318 -0.82373 3.98461H1.17627C1.17627 3.60439 1.2523 3.23698 1.4021 2.88888L-0.43501 2.0983ZM-0.82373 3.98461C-0.82373 4.60878 -0.696245 5.23748 -0.460722 5.85333L1.40733 5.13892C1.24778 4.72173 1.17627 4.33495 1.17627 3.98461H-0.82373ZM-0.460531 5.85383C-0.26424 6.36627 0.0102119 6.88032 0.347769 7.38421L2.00938 6.27109C1.74117 5.87071 1.54154 5.48928 1.40714 5.13842L-0.460531 5.85383ZM0.348097 7.3847C0.882493 8.18141 1.59897 8.9862 2.4595 9.78065L3.81616 8.31115C3.03788 7.59263 2.43453 6.90493 2.00906 6.2706L0.348097 7.3847ZM2.45939 9.78055C3.87762 11.0903 5.27837 11.9944 5.37337 12.0529L6.42156 10.3496C6.42689 10.3528 6.347 10.3022 6.19594 10.1994C6.04964 10.0998 5.84388 9.95612 5.59831 9.77533C5.10563 9.41262 4.46057 8.90625 3.81627 8.31125L2.45939 9.78055ZM5.35761 12.043L5.70439 12.2654L6.78411 10.5819L6.43733 10.3595L5.35761 12.043ZM5.70634 12.2666C6.18803 12.574 6.80528 12.574 7.28697 12.2666L6.21115 10.5806C6.38557 10.4693 6.60774 10.4693 6.78216 10.5806L5.70634 12.2666ZM7.28892 12.2654L7.6357 12.043L6.55598 10.3595L6.2092 10.5819L7.28892 12.2654ZM7.63551 12.0431C7.71238 11.9938 9.11159 11.0926 10.5335 9.78091L9.17743 8.31088C7.8807 9.50711 6.59344 10.3355 6.55618 10.3593L7.63551 12.0431ZM10.5338 9.78065C11.3943 8.9862 12.1108 8.18141 12.6452 7.3847L10.9843 6.2706C10.5588 6.90493 9.95543 7.59263 9.17715 8.31115L10.5338 9.78065ZM12.6455 7.38421C12.9819 6.88207 13.259 6.36695 13.4549 5.85106L11.5851 5.14118C11.4532 5.48859 11.2533 5.86896 10.9839 6.27109L12.6455 7.38421ZM13.454 5.85333C13.6896 5.23748 13.817 4.60878 13.817 3.98461H11.817C11.817 4.33495 11.7455 4.72173 11.586 5.13892L13.454 5.85333ZM13.817 3.98745C13.8189 3.33272 13.6868 2.69543 13.4298 2.0983L11.5927 2.88888C11.7425 3.237 11.8181 3.60348 11.817 3.98178L13.817 3.98745Z" fill="#00A2FF" mask="url(#path-1-inside-1_6_139)"/>
</svg>
